<?xml version="1.0" encoding="UTF-8"?>
<svg width="32px" height="24px" viewBox="0 0 32 24" version="1.1" xmlns="http://www.w3.org/2000/svg" xmlns:xlink="http://www.w3.org/1999/xlink">
    <title>logo备份</title>
    <g id="pc" stroke="none" stroke-width="1" fill="none" fill-rule="evenodd">
        <g id="首页-交互" transform="translate(-246.000000, -18.000000)">
            <g id="logo备份" transform="translate(246.189301, 18.134788)">
                <path d="M24.4169477,0.213266025 L31.1844602,0.213266025 L24.8343601,23.8666292 L18.3199241,23.8666292 L20.1484825,16.1807356 L12.3749389,16.1807356 L10.4683963,23.8666292 L3.71707122,23.8666292 L9.91356259,0.213266025 C13.8491053,1.22640792 15.9074843,2.08517452 16.0886996,2.78956583 C16.0935586,2.80845289 15.4858329,5.05245649 14.2655227,9.52157663 L22.1191059,9.52157663 L24.4169477,0.213266025 Z" id="矩形" fill="#4277BB"></path>
                <path d="M12.6159134,-6.21724894e-15 C14.2526731,0.110503038 15.3316829,0.515439726 15.8529427,1.21481006 C16.6348324,2.26386557 15.180675,6.41239292 14.6122757,7.884114 C13.8179198,6.62724603 11.4998582,6.3102153 7.65809083,6.93302182 C6.00909059,6.94287767 4.86540282,6.89263424 4.2270275,6.78229154 C2.90339238,6.55350218 1.93397627,6.07134483 1.32658625,5.51823151 C0.279789469,4.56497708 -0.147494161,2.72556657 0.0447353542,-6.21724894e-15 L12.6159134,-6.21724894e-15 Z" id="矩形" fill="#EB4826"></path>
            </g>
        </g>
    </g>
</svg>